<svg xmlns="http://www.w3.org/2000/svg" viewBox="0 0 1493 2048" width="1493" height="2048"><defs></defs><g transform="matrix(1,0,0,1,0,0)">
<g>
	<g>
		<g transform="matrix(1.257813444,0,0,1.257813444,-541.386730642,-264.229436322)">
			<path d="M574.626465,1357.878418C452.869162,1198.045326 430.418941,1003.540039 430.418941,1003.540039 C430.418941,1003.540039 625.890393,1000.842564 774.882812,1087.836914 C918.498535,1171.691895 1033.980469,1309.511719 1017.603253,1556.486127 C1017.603253,1556.486127 990.392714,1556.486127 990.392714,1556.486127 C990.392714,1556.486127 707.667995,1532.524527 574.626465,1357.878418 Z" transform="" fill="#9ada93"/>
			<path d="M995.021484,1556.213664C995.021484,1556.213664 1017.564844,1556.213664 1017.564844,1556.213664 C1019.429688,1480.02634 953.444824,1309.509277 807.297363,1203.935547 C691.338929,1120.169709 557.441406,1119.890137 557.441406,1119.890137 C557.441406,1119.890137 695.227051,1160.168457 817.543945,1274.992676 C949.815319,1399.1616 995.021484,1556.213664 995.021484,1556.213664 Z" transform="" fill="#38918a"/>
		</g>
		<g transform="matrix(1.257813444,0,0,1.257813444,-541.386730642,-264.229436322)">
			<path d="M1028.977051,1556.190673C1034.954834,1366.063232 1055.346875,1250.146875 1247.559375,1110.065625 C1398.831425,999.821089 1617.581059,1003.740625 1617.581059,1003.740625 C1617.581059,1003.740625 1584.958123,1197.234314 1448.7375,1387.165625 C1312.695312,1576.848145 1028.977051,1556.190673 1028.977051,1556.190673 Z" transform="" fill="#9ada93"/>
			<path d="M1056.93936,1556.190673C1056.93936,1556.190673 1100.916748,1378.596191 1250.078125,1255.10625 C1401.89911,1129.414433 1498.028125,1121.190625 1498.028125,1121.190625 C1498.028125,1121.190625 1354.0375,1098.971875 1198.3375,1242.5625 C1042.6375,1386.153125 1033.801887,1542.690005 1032.366943,1556.61377 C1032.366943,1556.61377 1056.93936,1556.190673 1056.93936,1556.190673 Z" transform="" fill="#38918a"/>
		</g>
		<path d="M1040.327759,1029.607544C1040.327759,1029.607544 1067.615625,938.903839 1148.907813,897.252276 C1216.203125,860.572589 1308.55625,876.747589 1308.55625,876.747589 C1308.55625,876.747589 1295.382812,944.055401 1208.865625,1000.503839 C1157.535937,1034.956964 1055.263062,1028.817437 1055.263062,1028.817437 C1055.263062,1028.817437 1054.037476,1051.845703 1039.776611,1058.848633 C1039.776611,1058.848633 1040.327759,1029.607544 1040.327759,1029.607544 Z" transform="matrix(1.257813444,0,0,1.257813444,-541.386730642,-264.229436322)" fill="#9ada93"/>
		<path d="M1009.666748,1031.2146C1009.666748,1031.2146 983.773438,939.982813 902.629688,897.484375 C836.510938,858.209375 737.803125,876.185937 737.803125,876.185937 C737.803125,876.185937 755.127541,937.598075 800.015625,972.43125 C877.86875,1032.845313 922.188504,1030.005263 993.55625,1030.059375 C993.55625,1030.059375 996.951294,1052.987061 1009.627686,1058.848633 C1009.627686,1058.848633 1009.666748,1031.2146 1009.666748,1031.2146 Z" transform="matrix(1.257813444,0,0,1.257813444,-541.386730642,-264.229436322)" fill="#9ada93"/>
		<path d="M1004.875488,851.685547C1004.875643,851.685547 1004.875533,1176.638218 1004.875411,1449.784375 C1004.875318,1656.594973 1004.875217,1838.292831 1004.875217,1838.292831 C1004.875217,1838.292831 1043.95166,1838.292831 1043.95166,1838.292831 C1043.95166,1838.292831 1043.95166,851.521606 1043.95166,851.521606 C1043.95166,851.521606 1004.820488,851.739646 1004.875488,851.685547 Z" transform="matrix(1.257813444,0,0,1.257813444,-541.386730642,-264.229436322)" fill="#9ada93"/>
		<g transform="matrix(1.257813444,0,0,1.257813444,-541.386730642,-264.229436322)">
			<path d="M1325.773926,352.397461C1325.773926,352.397461 1395.366211,590.876465 1266.19873,746.401367 C1266.19873,746.401367 1200.205078,844.135742 1043.95166,859.591797 C1043.95166,859.591797 893.920898,452.380371 1325.773926,352.397461 Z" transform="" fill="#f8b39d"/>
			<path d="M1160.783119,420.275125C1160.783119,420.275125 1183.587512,406.352848 1183.697392,406.288565 C1183.807272,406.224283 1327.512721,652.392214 1117.725778,844.912556 L 1100.230578,849.82267 L 1082.15143,853.918377 L 1062.929297,857.256941 L 1043.95166,859.591797 " transform="" fill="#d88b76"/>
		</g>
		<g transform="matrix(1.257813444,0,0,1.257813444,-541.386730642,-264.229436322)">
			<path d="M726.82373,350.947266C726.82373,350.947266 678.664551,534.784249 736.193848,661.970215 C793.723145,789.156181 908.878852,851.664062 1004.875217,859.591797 C1004.875217,859.591797 1137.036133,444.353027 726.82373,350.947266 Z" transform="" fill="#f8b39d"/>
			<path d="M871.676783,408.715803C1073.366236,518.376448 1004.875217,859.591797 1004.875217,859.591797 L 984.583897,857.140731 L 960.939033,852.378581 L 943.319931,847.513811 L 927.351302,842.121123 C730.847396,649.567412 871.676783,408.715803 871.676783,408.715803 Z" transform="" fill="#d88b76"/>
		</g>
		<path d="M1024.000271,210.07045C1024.000271,210.07045 859.594998,402.24707 860.793728,566.246094 C860.793728,566.246094 840.229221,773.381348 1004.875488,859.685547 C1004.875488,859.685547 1043.951931,859.685547 1043.951931,859.685547 C1043.951931,859.685547 1185.426221,825.35479 1194.402127,578.609375 C1200.947335,398.68321 1024.000271,210.07045 1024.000271,210.07045 Z" transform="matrix(1.257813444,0,0,1.257813444,-541.386730642,-264.229436322)" fill="#fad1be"/>
	</g>
</g></g></svg>